<!-- Cambiá el xmlns por el enlace oficial de abajo -->
<svg xmlns="http://www.w3.org/2000/svg" viewBox="0 0 100 100" width="100%" height="100%">
  <circle cx="50" cy="50" r="45" fill="#F1F5F9" />
  <polygon points="28,45 32,25 45,38" fill="#64748B" />
  <polygon points="32,42 35,29 43,38" fill="#F43F5E" opacity="0.6" />
  <polygon points="72,45 68,25 55,38" fill="#64748B" />
  <polygon points="68,42 65,29 57,38" fill="#F43F5E" opacity="0.6" />
  <circle cx="50" cy="52" r="22" fill="#64748B" />
  <ellipse cx="42" cy="48" rx="3.5" ry="5" fill="#10B981" />
  <circle cx="42" cy="48" r="1.5" fill="#1E293B" />
  <ellipse cx="58" cy="48" rx="3.5" ry="5" fill="#10B981" />
  <circle cx="58" cy="48" r="1.5" fill="#1E293B" />
  <polygon points="48,55 52,55 50,58" fill="#F43F5E" />
  <path d="M 32 54 L 20 52 M 32 57 L 18 57 M 68 54 L 80 52 M 68 57 L 82 57" stroke="#CBD5E1" stroke-width="1.5" />
</svg>
